<mxfile host="app.diagrams.net" modified="2023-04-07T19:13:16.944Z" agent="Mozilla/5.0 (Windows NT 10.0; Win64; x64) AppleWebKit/537.36 (KHTML, like Gecko) Chrome/111.0.0.0 Safari/537.36" etag="Ou_vn6xL1bqZv1uR2i7p" version="21.1.5" type="github">
  <diagram id="C5RBs43oDa-KdzZeNtuy" name="Page-1">
    <mxGraphModel dx="880" dy="444" grid="1" gridSize="10" guides="1" tooltips="1" connect="1" arrows="1" fold="1" page="1" pageScale="1" pageWidth="1654" pageHeight="2336" background="#ffffff" math="0" shadow="0">
      <root>
        <mxCell id="WIyWlLk6GJQsqaUBKTNV-0" />
        <mxCell id="WIyWlLk6GJQsqaUBKTNV-1" parent="WIyWlLk6GJQsqaUBKTNV-0" />
        <mxCell id="WIyWlLk6GJQsqaUBKTNV-2" value="" style="rounded=0;html=1;jettySize=auto;orthogonalLoop=1;fontSize=11;endArrow=block;endFill=0;endSize=8;strokeWidth=1;shadow=0;labelBackgroundColor=none;edgeStyle=orthogonalEdgeStyle;entryX=0.5;entryY=0;entryDx=0;entryDy=0;" parent="WIyWlLk6GJQsqaUBKTNV-1" source="WIyWlLk6GJQsqaUBKTNV-3" target="WIyWlLk6GJQsqaUBKTNV-7" edge="1">
          <mxGeometry relative="1" as="geometry" />
        </mxCell>
        <mxCell id="WIyWlLk6GJQsqaUBKTNV-3" value="Md Links&amp;nbsp;&lt;br&gt;Inicio" style="rounded=1;whiteSpace=wrap;html=1;fontSize=12;glass=0;strokeWidth=1;shadow=0;fillColor=#cdeb8b;strokeColor=#36393d;" parent="WIyWlLk6GJQsqaUBKTNV-1" vertex="1">
          <mxGeometry x="354" y="90" width="120" height="40" as="geometry" />
        </mxCell>
        <mxCell id="WIyWlLk6GJQsqaUBKTNV-4" value="No" style="rounded=0;html=1;jettySize=auto;orthogonalLoop=1;fontSize=11;endArrow=block;endFill=0;endSize=8;strokeWidth=1;shadow=0;labelBackgroundColor=none;edgeStyle=orthogonalEdgeStyle;exitX=0;exitY=0.5;exitDx=0;exitDy=0;entryX=0.408;entryY=-0.017;entryDx=0;entryDy=0;entryPerimeter=0;" parent="WIyWlLk6GJQsqaUBKTNV-1" source="WIyWlLk6GJQsqaUBKTNV-10" target="amFgFXvFA-CJ1mFteOLE-128" edge="1">
          <mxGeometry x="-0.5839" y="-20" relative="1" as="geometry">
            <mxPoint as="offset" />
            <mxPoint x="150" y="310" as="sourcePoint" />
            <mxPoint x="79" y="1090" as="targetPoint" />
            <Array as="points">
              <mxPoint x="79" y="350" />
            </Array>
          </mxGeometry>
        </mxCell>
        <mxCell id="WIyWlLk6GJQsqaUBKTNV-7" value="Validar&lt;br&gt;Path/Options" style="rounded=1;whiteSpace=wrap;html=1;fontSize=12;glass=0;strokeWidth=1;shadow=0;fillColor=#cdeb8b;strokeColor=#36393d;" parent="WIyWlLk6GJQsqaUBKTNV-1" vertex="1">
          <mxGeometry x="354" y="190" width="120" height="40" as="geometry" />
        </mxCell>
        <mxCell id="WIyWlLk6GJQsqaUBKTNV-8" value="Si" style="rounded=0;html=1;jettySize=auto;orthogonalLoop=1;fontSize=11;endArrow=block;endFill=0;strokeWidth=1;shadow=0;labelBackgroundColor=none;edgeStyle=orthogonalEdgeStyle;entryX=0.5;entryY=0;entryDx=0;entryDy=0;entryPerimeter=0;" parent="WIyWlLk6GJQsqaUBKTNV-1" source="WIyWlLk6GJQsqaUBKTNV-10" target="amFgFXvFA-CJ1mFteOLE-4" edge="1">
          <mxGeometry x="-0.2" y="16" relative="1" as="geometry">
            <mxPoint as="offset" />
            <mxPoint x="220" y="430" as="targetPoint" />
            <Array as="points">
              <mxPoint x="414" y="410" />
              <mxPoint x="414" y="410" />
            </Array>
          </mxGeometry>
        </mxCell>
        <mxCell id="WIyWlLk6GJQsqaUBKTNV-10" value="¿Existe el path?" style="rhombus;whiteSpace=wrap;html=1;shadow=0;fontFamily=Helvetica;fontSize=12;align=center;strokeWidth=1;spacing=6;spacingTop=-4;fillColor=#cdeb8b;strokeColor=#36393d;" parent="WIyWlLk6GJQsqaUBKTNV-1" vertex="1">
          <mxGeometry x="354" y="300" width="120" height="100" as="geometry" />
        </mxCell>
        <mxCell id="amFgFXvFA-CJ1mFteOLE-3" value="" style="rounded=0;html=1;jettySize=auto;orthogonalLoop=1;fontSize=11;endArrow=block;endFill=0;endSize=8;strokeWidth=1;shadow=0;labelBackgroundColor=none;edgeStyle=orthogonalEdgeStyle;exitX=0.5;exitY=1;exitDx=0;exitDy=0;entryX=0.5;entryY=0;entryDx=0;entryDy=0;" parent="WIyWlLk6GJQsqaUBKTNV-1" source="WIyWlLk6GJQsqaUBKTNV-7" target="WIyWlLk6GJQsqaUBKTNV-10" edge="1">
          <mxGeometry relative="1" as="geometry">
            <mxPoint x="170" y="250" as="sourcePoint" />
            <mxPoint x="220" y="280" as="targetPoint" />
            <Array as="points" />
          </mxGeometry>
        </mxCell>
        <mxCell id="amFgFXvFA-CJ1mFteOLE-4" value="¿El path es una ruta absoluta?" style="rhombus;whiteSpace=wrap;html=1;shadow=0;fontFamily=Helvetica;fontSize=12;align=center;strokeWidth=1;spacing=6;spacingTop=-4;fillColor=#cdeb8b;strokeColor=#36393d;" parent="WIyWlLk6GJQsqaUBKTNV-1" vertex="1">
          <mxGeometry x="342" y="445" width="144" height="110" as="geometry" />
        </mxCell>
        <mxCell id="amFgFXvFA-CJ1mFteOLE-7" value="No" style="rounded=0;html=1;jettySize=auto;orthogonalLoop=1;fontSize=11;endArrow=block;endFill=0;strokeWidth=1;shadow=0;labelBackgroundColor=none;edgeStyle=orthogonalEdgeStyle;" parent="WIyWlLk6GJQsqaUBKTNV-1" edge="1">
          <mxGeometry x="-0.2" y="16" relative="1" as="geometry">
            <mxPoint as="offset" />
            <mxPoint x="342" y="500" as="sourcePoint" />
            <mxPoint x="250" y="500" as="targetPoint" />
            <Array as="points">
              <mxPoint x="262" y="500" />
            </Array>
          </mxGeometry>
        </mxCell>
        <mxCell id="amFgFXvFA-CJ1mFteOLE-8" value="Si" style="rounded=0;html=1;jettySize=auto;orthogonalLoop=1;fontSize=11;endArrow=block;endFill=0;strokeWidth=1;shadow=0;labelBackgroundColor=none;edgeStyle=orthogonalEdgeStyle;entryX=0.5;entryY=0;entryDx=0;entryDy=0;entryPerimeter=0;" parent="WIyWlLk6GJQsqaUBKTNV-1" edge="1">
          <mxGeometry x="-0.2" y="16" relative="1" as="geometry">
            <mxPoint as="offset" />
            <mxPoint x="413" y="557" as="sourcePoint" />
            <mxPoint x="413" y="607" as="targetPoint" />
            <Array as="points">
              <mxPoint x="413" y="567" />
              <mxPoint x="413" y="567" />
            </Array>
          </mxGeometry>
        </mxCell>
        <mxCell id="amFgFXvFA-CJ1mFteOLE-9" value="Convertir a una ruta absoluta" style="rounded=1;whiteSpace=wrap;html=1;fillColor=#cdeb8b;strokeColor=#36393d;" parent="WIyWlLk6GJQsqaUBKTNV-1" vertex="1">
          <mxGeometry x="140" y="475" width="110" height="50" as="geometry" />
        </mxCell>
        <mxCell id="amFgFXvFA-CJ1mFteOLE-10" value="¿Es un directorio?" style="rhombus;whiteSpace=wrap;html=1;shadow=0;fontFamily=Helvetica;fontSize=12;align=center;strokeWidth=1;spacing=6;spacingTop=-4;fillColor=#cdeb8b;strokeColor=#36393d;" parent="WIyWlLk6GJQsqaUBKTNV-1" vertex="1">
          <mxGeometry x="354" y="607" width="118" height="110" as="geometry" />
        </mxCell>
        <mxCell id="amFgFXvFA-CJ1mFteOLE-11" value="Recorrer el directorio" style="rounded=1;whiteSpace=wrap;html=1;fillColor=#cdeb8b;strokeColor=#36393d;" parent="WIyWlLk6GJQsqaUBKTNV-1" vertex="1">
          <mxGeometry x="140" y="637.5" width="110" height="49" as="geometry" />
        </mxCell>
        <mxCell id="amFgFXvFA-CJ1mFteOLE-12" value="¿Es un archivo .md?" style="rhombus;whiteSpace=wrap;html=1;shadow=0;fontFamily=Helvetica;fontSize=12;align=center;strokeWidth=1;spacing=6;spacingTop=-4;fillColor=#cdeb8b;strokeColor=#36393d;" parent="WIyWlLk6GJQsqaUBKTNV-1" vertex="1">
          <mxGeometry x="354" y="755" width="118" height="110" as="geometry" />
        </mxCell>
        <mxCell id="amFgFXvFA-CJ1mFteOLE-125" value="Leer archivo .md" style="rounded=1;whiteSpace=wrap;html=1;fillColor=#cdeb8b;strokeColor=#36393d;" parent="WIyWlLk6GJQsqaUBKTNV-1" vertex="1">
          <mxGeometry x="364" y="910" width="110" height="49" as="geometry" />
        </mxCell>
        <mxCell id="amFgFXvFA-CJ1mFteOLE-126" value="¿Se encontraron links?" style="rhombus;whiteSpace=wrap;html=1;shadow=0;fontFamily=Helvetica;fontSize=12;align=center;strokeWidth=1;spacing=6;spacingTop=-4;fillColor=#cdeb8b;strokeColor=#36393d;" parent="WIyWlLk6GJQsqaUBKTNV-1" vertex="1">
          <mxGeometry x="520" y="879.5" width="120" height="110" as="geometry" />
        </mxCell>
        <mxCell id="amFgFXvFA-CJ1mFteOLE-128" value="Imprimir un mensaje: La ruta no existe" style="rounded=1;whiteSpace=wrap;html=1;fillColor=#cdeb8b;strokeColor=#36393d;" parent="WIyWlLk6GJQsqaUBKTNV-1" vertex="1">
          <mxGeometry x="30" y="1120" width="120" height="60" as="geometry" />
        </mxCell>
        <mxCell id="amFgFXvFA-CJ1mFteOLE-129" value="Extraer los archivos.md&amp;nbsp;&lt;br&gt;[{ href, text, file}]" style="rounded=1;whiteSpace=wrap;html=1;fillColor=#cdeb8b;strokeColor=#36393d;" parent="WIyWlLk6GJQsqaUBKTNV-1" vertex="1">
          <mxGeometry x="690" y="904.5" width="120" height="60" as="geometry" />
        </mxCell>
        <mxCell id="amFgFXvFA-CJ1mFteOLE-131" value="¿Validate?" style="rhombus;whiteSpace=wrap;html=1;shadow=0;fontFamily=Helvetica;fontSize=12;align=center;strokeWidth=1;spacing=6;spacingTop=-4;fillColor=#cdeb8b;strokeColor=#36393d;" parent="WIyWlLk6GJQsqaUBKTNV-1" vertex="1">
          <mxGeometry x="880" y="879.5" width="120" height="110" as="geometry" />
        </mxCell>
        <mxCell id="amFgFXvFA-CJ1mFteOLE-133" value="Retornar una promesa que retorna un arreglo de objetos:&lt;br&gt;[{href, file, text,status, ok }]" style="shape=parallelogram;perimeter=parallelogramPerimeter;whiteSpace=wrap;html=1;fixedSize=1;fillColor=#cdeb8b;strokeColor=#36393d;" parent="WIyWlLk6GJQsqaUBKTNV-1" vertex="1">
          <mxGeometry x="1080" y="899.5" width="180" height="70" as="geometry" />
        </mxCell>
        <mxCell id="amFgFXvFA-CJ1mFteOLE-134" value="Retornar una promesa que&lt;br&gt;resuelve un arreglo&lt;br&gt;&amp;nbsp;de objetos:&amp;nbsp; &amp;nbsp; &lt;br&gt;[{ href, text, file}]&lt;br&gt;&amp;nbsp;" style="shape=parallelogram;perimeter=parallelogramPerimeter;whiteSpace=wrap;html=1;fixedSize=1;fillColor=#cdeb8b;strokeColor=#36393d;" parent="WIyWlLk6GJQsqaUBKTNV-1" vertex="1">
          <mxGeometry x="855" y="1031" width="225" height="70" as="geometry" />
        </mxCell>
        <mxCell id="amFgFXvFA-CJ1mFteOLE-135" value="No" style="rounded=0;html=1;jettySize=auto;orthogonalLoop=1;fontSize=11;endArrow=block;endFill=0;strokeWidth=1;shadow=0;labelBackgroundColor=none;edgeStyle=orthogonalEdgeStyle;entryX=0.5;entryY=0;entryDx=0;entryDy=0;entryPerimeter=0;" parent="WIyWlLk6GJQsqaUBKTNV-1" edge="1">
          <mxGeometry x="-0.2" y="16" relative="1" as="geometry">
            <mxPoint as="offset" />
            <mxPoint x="413" y="716" as="sourcePoint" />
            <mxPoint x="413" y="756" as="targetPoint" />
            <Array as="points">
              <mxPoint x="413" y="721" />
            </Array>
          </mxGeometry>
        </mxCell>
        <mxCell id="amFgFXvFA-CJ1mFteOLE-137" value="Si" style="rounded=0;html=1;jettySize=auto;orthogonalLoop=1;fontSize=11;endArrow=block;endFill=0;strokeWidth=1;shadow=0;labelBackgroundColor=none;edgeStyle=orthogonalEdgeStyle;exitX=0.5;exitY=1;exitDx=0;exitDy=0;" parent="WIyWlLk6GJQsqaUBKTNV-1" edge="1">
          <mxGeometry x="-0.2" y="16" relative="1" as="geometry">
            <mxPoint as="offset" />
            <mxPoint x="412" y="866" as="sourcePoint" />
            <mxPoint x="413" y="910" as="targetPoint" />
            <Array as="points">
              <mxPoint x="413" y="866" />
            </Array>
          </mxGeometry>
        </mxCell>
        <mxCell id="amFgFXvFA-CJ1mFteOLE-141" value="Si" style="rounded=0;html=1;jettySize=auto;orthogonalLoop=1;fontSize=11;endArrow=block;endFill=0;strokeWidth=1;shadow=0;labelBackgroundColor=none;edgeStyle=orthogonalEdgeStyle;entryX=1;entryY=0.5;entryDx=0;entryDy=0;" parent="WIyWlLk6GJQsqaUBKTNV-1" target="amFgFXvFA-CJ1mFteOLE-11" edge="1">
          <mxGeometry x="-0.2" y="16" relative="1" as="geometry">
            <mxPoint as="offset" />
            <mxPoint x="352" y="661.5" as="sourcePoint" />
            <mxPoint x="260" y="661.5" as="targetPoint" />
            <Array as="points" />
          </mxGeometry>
        </mxCell>
        <mxCell id="amFgFXvFA-CJ1mFteOLE-143" value="False" style="rounded=0;html=1;jettySize=auto;orthogonalLoop=1;fontSize=11;endArrow=block;endFill=0;strokeWidth=1;shadow=0;labelBackgroundColor=none;edgeStyle=orthogonalEdgeStyle;entryX=0.5;entryY=0;entryDx=0;entryDy=0;entryPerimeter=0;jumpSize=4;" parent="WIyWlLk6GJQsqaUBKTNV-1" edge="1">
          <mxGeometry x="-0.0652" y="29" relative="1" as="geometry">
            <mxPoint as="offset" />
            <mxPoint x="940" y="990" as="sourcePoint" />
            <mxPoint x="940.5" y="1030" as="targetPoint" />
            <Array as="points">
              <mxPoint x="940" y="1000" />
              <mxPoint x="941" y="1000" />
            </Array>
          </mxGeometry>
        </mxCell>
        <mxCell id="amFgFXvFA-CJ1mFteOLE-145" value="True" style="rounded=0;html=1;jettySize=auto;orthogonalLoop=1;fontSize=11;endArrow=block;endFill=0;strokeWidth=1;shadow=0;labelBackgroundColor=none;edgeStyle=orthogonalEdgeStyle;jumpSize=4;exitX=1;exitY=0.5;exitDx=0;exitDy=0;exitPerimeter=0;" parent="WIyWlLk6GJQsqaUBKTNV-1" source="amFgFXvFA-CJ1mFteOLE-131" target="amFgFXvFA-CJ1mFteOLE-133" edge="1">
          <mxGeometry x="-0.1111" y="15" relative="1" as="geometry">
            <mxPoint y="1" as="offset" />
            <mxPoint x="1010" y="940" as="sourcePoint" />
            <mxPoint x="1080" y="934.36" as="targetPoint" />
            <Array as="points" />
          </mxGeometry>
        </mxCell>
        <mxCell id="amFgFXvFA-CJ1mFteOLE-146" value="" style="rounded=0;html=1;jettySize=auto;orthogonalLoop=1;fontSize=11;endArrow=block;endFill=0;strokeWidth=1;shadow=0;labelBackgroundColor=none;edgeStyle=orthogonalEdgeStyle;jumpSize=4;entryX=0;entryY=0.5;entryDx=0;entryDy=0;" parent="WIyWlLk6GJQsqaUBKTNV-1" target="amFgFXvFA-CJ1mFteOLE-131" edge="1">
          <mxGeometry x="-0.1128" y="14" relative="1" as="geometry">
            <mxPoint as="offset" />
            <mxPoint x="810" y="934.16" as="sourcePoint" />
            <mxPoint x="870" y="934.63" as="targetPoint" />
            <Array as="points" />
          </mxGeometry>
        </mxCell>
        <mxCell id="amFgFXvFA-CJ1mFteOLE-149" value="Si" style="rounded=0;html=1;jettySize=auto;orthogonalLoop=1;fontSize=11;endArrow=block;endFill=0;strokeWidth=1;shadow=0;labelBackgroundColor=none;edgeStyle=orthogonalEdgeStyle;jumpSize=4;exitX=1;exitY=0.5;exitDx=0;exitDy=0;" parent="WIyWlLk6GJQsqaUBKTNV-1" source="amFgFXvFA-CJ1mFteOLE-126" edge="1">
          <mxGeometry x="-0.1128" y="14" relative="1" as="geometry">
            <mxPoint as="offset" />
            <mxPoint x="660" y="934" as="sourcePoint" />
            <mxPoint x="690" y="934.16" as="targetPoint" />
            <Array as="points" />
          </mxGeometry>
        </mxCell>
        <mxCell id="amFgFXvFA-CJ1mFteOLE-150" value="" style="rounded=0;html=1;jettySize=auto;orthogonalLoop=1;fontSize=11;endArrow=block;endFill=0;strokeWidth=1;shadow=0;labelBackgroundColor=none;edgeStyle=orthogonalEdgeStyle;jumpSize=4;entryX=0;entryY=0.5;entryDx=0;entryDy=0;" parent="WIyWlLk6GJQsqaUBKTNV-1" target="amFgFXvFA-CJ1mFteOLE-126" edge="1">
          <mxGeometry x="-0.1128" y="14" relative="1" as="geometry">
            <mxPoint as="offset" />
            <mxPoint x="474" y="934" as="sourcePoint" />
            <mxPoint x="514" y="934" as="targetPoint" />
            <Array as="points" />
          </mxGeometry>
        </mxCell>
        <mxCell id="amFgFXvFA-CJ1mFteOLE-152" value="Fin del proceso" style="ellipse;whiteSpace=wrap;html=1;fillColor=#cdeb8b;strokeColor=#36393d;" parent="WIyWlLk6GJQsqaUBKTNV-1" vertex="1">
          <mxGeometry x="680" y="1150" width="120" height="80" as="geometry" />
        </mxCell>
        <mxCell id="amFgFXvFA-CJ1mFteOLE-153" value="" style="rounded=0;html=1;jettySize=auto;orthogonalLoop=1;fontSize=11;endArrow=block;endFill=0;strokeWidth=1;shadow=0;labelBackgroundColor=none;edgeStyle=orthogonalEdgeStyle;exitX=1;exitY=0.5;exitDx=0;exitDy=0;" parent="WIyWlLk6GJQsqaUBKTNV-1" source="amFgFXvFA-CJ1mFteOLE-128" edge="1">
          <mxGeometry x="-0.2" y="16" relative="1" as="geometry">
            <mxPoint as="offset" />
            <mxPoint x="154" y="1160" as="sourcePoint" />
            <mxPoint x="570" y="1160" as="targetPoint" />
            <Array as="points">
              <mxPoint x="150" y="1160" />
            </Array>
          </mxGeometry>
        </mxCell>
        <mxCell id="Yl6t-Qv-YOlfAyvfEiZ4-0" value="" style="rounded=0;html=1;jettySize=auto;orthogonalLoop=1;fontSize=11;endArrow=block;endFill=0;strokeWidth=1;shadow=0;labelBackgroundColor=none;edgeStyle=orthogonalEdgeStyle;jumpSize=4;exitX=0.369;exitY=1.014;exitDx=0;exitDy=0;exitPerimeter=0;entryX=1.025;entryY=0.625;entryDx=0;entryDy=0;entryPerimeter=0;" parent="WIyWlLk6GJQsqaUBKTNV-1" source="amFgFXvFA-CJ1mFteOLE-134" target="amFgFXvFA-CJ1mFteOLE-152" edge="1">
          <mxGeometry x="-0.0652" y="29" relative="1" as="geometry">
            <mxPoint as="offset" />
            <mxPoint x="939.5" y="1110" as="sourcePoint" />
            <mxPoint x="810" y="1200" as="targetPoint" />
            <Array as="points">
              <mxPoint x="940" y="1101" />
              <mxPoint x="940" y="1200" />
            </Array>
          </mxGeometry>
        </mxCell>
        <mxCell id="Yl6t-Qv-YOlfAyvfEiZ4-2" value="" style="rounded=0;html=1;jettySize=auto;orthogonalLoop=1;fontSize=11;endArrow=block;endFill=0;strokeWidth=1;shadow=0;labelBackgroundColor=none;edgeStyle=orthogonalEdgeStyle;jumpSize=4;entryX=1.025;entryY=0.363;entryDx=0;entryDy=0;entryPerimeter=0;" parent="WIyWlLk6GJQsqaUBKTNV-1" target="amFgFXvFA-CJ1mFteOLE-152" edge="1">
          <mxGeometry x="-0.1128" y="14" relative="1" as="geometry">
            <mxPoint as="offset" />
            <mxPoint x="1169.5" y="969.5" as="sourcePoint" />
            <mxPoint x="850" y="1190" as="targetPoint" />
            <Array as="points">
              <mxPoint x="1170" y="1179" />
            </Array>
          </mxGeometry>
        </mxCell>
        <mxCell id="Yl6t-Qv-YOlfAyvfEiZ4-4" value="" style="rounded=0;html=1;jettySize=auto;orthogonalLoop=1;fontSize=11;endArrow=block;endFill=0;strokeWidth=1;shadow=0;labelBackgroundColor=none;edgeStyle=orthogonalEdgeStyle;" parent="WIyWlLk6GJQsqaUBKTNV-1" edge="1">
          <mxGeometry x="-0.2" y="16" relative="1" as="geometry">
            <mxPoint as="offset" />
            <mxPoint x="202" y="525" as="sourcePoint" />
            <mxPoint x="410" y="580" as="targetPoint" />
            <Array as="points">
              <mxPoint x="202" y="525" />
              <mxPoint x="202" y="585" />
            </Array>
          </mxGeometry>
        </mxCell>
        <mxCell id="Yl6t-Qv-YOlfAyvfEiZ4-9" value="No" style="rounded=0;html=1;jettySize=auto;orthogonalLoop=1;fontSize=11;endArrow=block;endFill=0;strokeWidth=1;shadow=0;labelBackgroundColor=none;edgeStyle=orthogonalEdgeStyle;jumpSize=4;" parent="WIyWlLk6GJQsqaUBKTNV-1" edge="1">
          <mxGeometry x="-0.5194" y="20" relative="1" as="geometry">
            <mxPoint as="offset" />
            <mxPoint x="472" y="810" as="sourcePoint" />
            <mxPoint x="810" y="1190" as="targetPoint" />
            <Array as="points">
              <mxPoint x="1300" y="810" />
              <mxPoint x="1300" y="1190" />
            </Array>
          </mxGeometry>
        </mxCell>
        <mxCell id="ZG2KXt9PDtXmt9WIBc19-1" value="No" style="rounded=0;html=1;jettySize=auto;orthogonalLoop=1;fontSize=11;endArrow=block;endFill=0;strokeWidth=1;shadow=0;labelBackgroundColor=none;edgeStyle=orthogonalEdgeStyle;jumpSize=4;entryX=0;entryY=0.5;entryDx=0;entryDy=0;" parent="WIyWlLk6GJQsqaUBKTNV-1" target="amFgFXvFA-CJ1mFteOLE-152" edge="1">
          <mxGeometry x="-0.1128" y="14" relative="1" as="geometry">
            <mxPoint as="offset" />
            <mxPoint x="580" y="990" as="sourcePoint" />
            <mxPoint x="630" y="1070" as="targetPoint" />
            <Array as="points">
              <mxPoint x="580" y="1200" />
              <mxPoint x="630" y="1200" />
              <mxPoint x="630" y="1190" />
            </Array>
          </mxGeometry>
        </mxCell>
      </root>
    </mxGraphModel>
  </diagram>
</mxfile>
